{% load i18n %}<svg version="1.1" xmlns="http://www.w3.org/2000/svg" preserveAspectRatio="xMidYMid slice" viewBox="0 0 400 400" height="360" width="360" name="mySVG">
  <g id="myGroup">
	<polygon points="0 390,400 390,376.25 336.66666666666663,23.750000000000014 336.66666666666663" fill="#FFFFFF" stroke="black"/>
	<text x="200" y="375" font-size="20" text-anchor="middle" fill="black" onclick="show_patient_list({{illness}}, -1);">{% trans 'No diagnosticados' %}: {{plist.0|length}} ({% widthratio plist.0|length num_patient 100 %}%)</text>
	<id>1</id>
	<polygon points="26.25 330,373.75 330,351.25 269.99999999999994,48.75000000000002 269.99999999999994" fill="#468847" stroke="black"/>
	<text x="200" y="306.6666666666667" font-size="20" text-anchor="middle" fill="white" onclick="show_patient_list({{illness}}, 0);">{{plist.1|length}} ({% widthratio plist.1|length num_patient 100 %}%)</text>
	<id>2</id>
	<polygon points="51.25000000000001 263.3333333333333,348.75 263.3333333333333,326.25 203.33333333333334,73.75 203.33333333333334" fill="#999999" stroke="black"/>
	<text x="200" y="239.99999999999997" font-size="20" text-anchor="middle" fill="white" onclick="show_patient_list({{illness}}, 1);">{{plist.2|length}} ({% widthratio plist.2|length num_patient 100 %}%)</text>
	<id>3</id>
	<polygon points="76.25 196.66666666666666,323.75 196.66666666666666,301.25 136.66666666666666,98.75000000000001 136.66666666666666" fill="#F89406" stroke="black"/>
	<text x="200" y="173.33333333333331" font-size="20" text-anchor="middle" fill="white" onclick="show_patient_list({{illness}}, 2);">{{plist.3|length}} ({% widthratio plist.3|length num_patient 100 %}%)</text>
	<id>4</id><polygon points="101.25 129.99999999999997,298.75 129.99999999999997,276.25 70.00000000000001,123.75 70.00000000000001" fill="#B94A48" stroke="black"/>
	<text x="200" y="106.66666666666667" font-size="20" text-anchor="middle" fill="white" onclick="show_patient_list({{illness}}, 3);">{{plist.4|length}} ({% widthratio plist.4|length num_patient 100 %}%)</text>
	<id>5</id>
	<polygon points="126.24999999999999 63.33333333333335,273.75 63.33333333333335,250 0,150 0" fill="#202020" stroke="black"/>
	<text x="200" y="38.33333333333334" font-size="20" text-anchor="middle" fill="white" onclick="show_patient_list({{illness}}, 4);">{{plist.5|length}} ({% widthratio plist.5|length num_patient 100 %}%)</text>
	<id>6</id>
  </g>
</svg>